<?xml version="1.0"?>
<!DOCTYPE svg PUBLIC "-//W3C//DTD SVG 1.1//EN"
"http://www.w3.org/Graphics/SVG/1.1/DTD/svg11.dtd">
<svg version="1.1" xmlns="http://www.w3.org/2000/svg"
xmlns:xlink="http://www.w3.org/1999/xlink"
width="1200px" height="800px"
viewBox="0 0 3 2"
preserveAspectRatio="xMidYMid">

--Figura Pierwsza
<g>
	<g>
	<animateTransform attributeName = "transform" type = "rotate"
		from = "0 0.17,0.41" to = "360 0.17,0.41"
		dur = "4s"
		repeatCount="indefinite"/>	
		<polygon points="0.5452946737555957,0.07178940572102838
		.43634433716017934,0.33481878595479636
		0.21047588780079943,0.5081337428812077
		-0.07178940572102838,0.5452946737555957
		-0.33481878595479636,0.43634433716017934
		-0.5081337428812077,0.21047588780079945
		-0.5452946737555957,-0.07178940572102847
		-0.43634433716017934,-0.33481878595479636
		-0.21047588780079923,-0.5081337428812078
		0.0717894057210282,-0.5452946737555958
		0.3348187859547959,-0.4363443371601797
		0.5081337428812074,-0.21047588780080018" 
			fill="grey" transform="translate(0.17,0.41) scale(0.2,0.2) "/>
	</g>
	<g>
	<animateTransform attributeName = "transform" type = "rotate"
		from = "0 0.65,0.57" to = "360 0.65,0.57"
		dur = "4s"	
		repeatCount="indefinite"/>	
		<polygon points="0.5452946737555957,0.07178940572102838
		0.43634433716017934,0.33481878595479636
		0.21047588780079943,0.5081337428812077
		-0.07178940572102838,0.5452946737555957
		-0.33481878595479636,0.43634433716017934
		-0.5081337428812077,0.21047588780079945
		-0.5452946737555957,-0.07178940572102847
		-0.43634433716017934,-0.33481878595479636
		-0.21047588780079923,-0.5081337428812078
		0.0717894057210282,-0.5452946737555958
		0.3348187859547959,-0.4363443371601797
		0.5081337428812074,-0.21047588780080018" 
			fill="grey" transform="translate(0.65,0.57) scale(0.2,0.2)"/>
	</g>	
	<rect x="0.29" y="0.33	" width = "0.5" height = "0.015	" transform = "rotate (18)" 
		fill="red" stroke="red" stroke-width="0.02" />
	<polygon points="0.35,0.8 0.4,0.47 0.45,0.8" fill="magenta" />	
	
</g>

--Figura Druga
<g transform="translate(0.8,0.4) scale(1.5,1.5)" >
	<g>
	<animateTransform attributeName = "transform" type = "rotate"
		from = "0 0.17,0.41" to = "360 0.17,0.41"
		dur = "4s"
		repeatCount="indefinite"/>	
		<polygon points="0.5452946737555957,0.07178940572102838
		0.43634433716017934,0.33481878595479636
		0.21047588780079943,0.5081337428812077
		-0.07178940572102838,0.5452946737555957
		-0.33481878595479636,0.43634433716017934
		-0.5081337428812077,0.21047588780079945
		-0.5452946737555957,-0.07178940572102847
		-0.43634433716017934,-0.33481878595479636
		-0.21047588780079923,-0.5081337428812078
		0.0717894057210282,-0.5452946737555958
		0.3348187859547959,-0.4363443371601797
		0.5081337428812074,-0.21047588780080018" 
			fill="grey" transform="translate(0.17,0.41) scale(0.2,0.2)"/>
	</g>
	
	<g>
	<animateTransform attributeName = "transform" type = "rotate"
		from = "0 0.65,0.57" to = "360 0.65,0.57"
		dur = "4s"	
		repeatCount="indefinite"/>	
		<polygon points="0.5452946737555957,0.07178940572102838
		0.43634433716017934,0.33481878595479636
		0.21047588780079943,0.5081337428812077
		-0.07178940572102838,0.5452946737555957
		-0.33481878595479636,0.43634433716017934
		-0.5081337428812077,0.21047588780079945
		-0.5452946737555957,-0.07178940572102847
		-0.43634433716017934,-0.33481878595479636
		-0.21047588780079923,-0.5081337428812078
		0.0717894057210282,-0.5452946737555958
		0.3348187859547959,-0.4363443371601797
		0.5081337428812074,-0.21047588780080018" 
			fill="grey" transform="translate(0.65,0.57) scale(0.2,0.2)"/>
	</g>
	<rect x="0.29" y="0.33	" width = "0.5" height = "0.015	" transform = "rotate (18)" 
		fill="red" stroke="red" stroke-width="0.02" />
	<polygon points="0.35,0.8 0.4,0.47 0.45,0.8" fill="blue"/>	
</g>

--Trzecia figura
<g transform="translate(1.6,0.2) scale(0.7,0.7)" >
	<g>
		<animateTransform attributeName = "transform" type = "rotate"
		from = "0 0.17,0.41" to = "360 0.17,0.41"
		dur = "4s"
		repeatCount="indefinite"/>	
		<polygon points="0.5452946737555957,0.07178940572102838
		0.43634433716017934,0.33481878595479636
		0.21047588780079943,0.5081337428812077
		-0.07178940572102838,0.5452946737555957
		-0.33481878595479636,0.43634433716017934
		-0.5081337428812077,0.21047588780079945
		-0.5452946737555957,-0.07178940572102847
		-0.43634433716017934,-0.33481878595479636
		-0.21047588780079923,-0.5081337428812078
		0.0717894057210282,-0.5452946737555958
		0.3348187859547959,-0.4363443371601797
		0.5081337428812074,-0.21047588780080018" 
			fill="grey" transform="translate(0.17,0.41) scale(0.2,0.2)"/>
	</g>
	<g>
	<animateTransform attributeName = "transform" type = "rotate"
		from = "0 0.65,0.57" to = "360 0.65,0.57"
		dur = "4s"	
		repeatCount="indefinite"/>	
		<polygon points="0.5452946737555957,0.07178940572102838
		0.43634433716017934,0.33481878595479636
		0.21047588780079943,0.5081337428812077
		-0.07178940572102838,0.5452946737555957
		-0.33481878595479636,0.43634433716017934
		-0.5081337428812077,0.21047588780079945
		-0.5452946737555957,-0.07178940572102847
		-0.43634433716017934,-0.33481878595479636
		-0.21047588780079923,-0.5081337428812078
		0.0717894057210282,-0.5452946737555958
		0.3348187859547959,-0.4363443371601797
		0.5081337428812074,-0.21047588780080018" 
			fill="grey" transform="translate(0.65,0.57) scale(0.2,0.2)"/>
	</g>
	<rect x="0.29" y="0.33	" width = "0.5" height = "0.015	" transform = "rotate (18)" 
		fill="red" stroke="red" stroke-width="0.02" />
	<polygon points="0.35,0.8 0.4,0.47 0.45,0.8" fill="green"/>	
</g>
	
</svg>